<?xml version="1.0" standalone="no"?>
<!DOCTYPE svg PUBLIC "-//W3C//DTD SVG 20010904//EN"
 "http://www.w3.org/TR/2001/REC-SVG-20010904/DTD/svg10.dtd">
<svg version="1.0" xmlns="http://www.w3.org/2000/svg"
 width="917.000000pt" height="917.000000pt" viewBox="0 0 917.000000 917.000000"
 preserveAspectRatio="xMidYMid meet">
<metadata>
Created by potrace 1.14, written by Peter Selinger 2001-2017
</metadata>
<g transform="translate(0.000000,917.000000) scale(0.100000,-0.100000)"
fill="#000000" stroke="none">
<path d="M0 4585 l0 -4585 4585 0 4585 0 0 4585 0 4585 -4585 0 -4585 0 0
-4585z m3671 1874 c304 -24 503 -94 762 -269 138 -92 291 -224 302 -260 5 -16
12 -12 53 29 97 96 399 299 548 367 297 136 687 175 1036 104 135 -28 229 -61
358 -125 143 -72 238 -141 346 -251 117 -120 192 -226 269 -378 115 -227 173
-443 217 -806 7 -62 13 -450 17 -1114 l6 -1020 280 -47 c153 -26 294 -50 312
-54 l33 -6 0 -399 0 -400 -1185 0 -1185 0 0 400 c0 220 1 400 3 401 1 0 142
24 312 52 l310 53 0 1029 c0 954 -1 1038 -18 1139 -49 290 -141 443 -319 530
-116 57 -184 71 -333 70 -225 0 -355 -51 -495 -192 -153 -154 -233 -326 -270
-579 -6 -46 -10 -423 -10 -1032 l0 -961 23 -5 c12 -3 144 -25 292 -50 149 -25
282 -48 298 -51 l27 -6 0 -399 0 -399 -1185 0 -1185 0 0 400 c0 220 1 400 3
401 1 0 142 24 312 52 l310 53 0 1014 c0 940 -1 1023 -18 1125 -48 285 -140
445 -318 549 -133 79 -329 105 -537 71 -120 -20 -199 -46 -287 -97 -84 -49
-219 -182 -258 -254 l-27 -52 2 -1178 3 -1178 310 -53 c171 -28 311 -52 313
-52 1 -1 2 -181 2 -401 l0 -400 -1185 0 -1185 0 0 399 0 399 28 6 c15 3 149
26 297 51 149 25 280 48 293 50 l22 5 0 1368 0 1369 -320 54 -320 54 0 402 0
403 820 0 820 0 0 -167 c1 -116 4 -163 11 -151 16 29 167 122 317 197 243 122
462 180 732 194 30 2 66 4 81 5 14 1 86 -3 160 -9z"/>
</g>
</svg>
